<svg width="17" height="17" viewBox="0 0 17 17" fill="none" xmlns="http://www.w3.org/2000/svg">
<g id="fluent-mdl2:review-response-solid" clip-path="url(#clip0_233_423)">
<path id="Vector" d="M16.8416 16.0949C16.9468 16.2001 16.9993 16.3246 16.9993 16.4684C16.9993 16.6123 16.9468 16.7368 16.8416 16.842C16.7365 16.9471 16.612 16.9997 16.4681 16.9997C16.3242 16.9997 16.1997 16.9471 16.0945 16.842L9.57843 10.3342C9.05272 10.7769 8.47166 11.1117 7.83527 11.3386C7.19888 11.5655 6.53481 11.6817 5.84308 11.6872C5.3063 11.6872 4.78888 11.618 4.29083 11.4797C3.79279 11.3413 3.32794 11.1449 2.8963 10.8903C2.46466 10.6358 2.06899 10.3314 1.70929 9.97724C1.34959 9.62307 1.04523 9.23017 0.796206 8.79852C0.547182 8.36688 0.350731 7.89927 0.20685 7.39569C0.0629702 6.89211 -0.00620298 6.3747 -0.000669126 5.84345C-0.000669126 5.30666 0.0685041 4.78925 0.20685 4.2912C0.345197 3.79315 0.541649 3.32831 0.796206 2.89667C1.05076 2.46503 1.35513 2.06936 1.70929 1.70966C2.06346 1.34996 2.45636 1.0456 2.888 0.796572C3.31964 0.547549 3.78725 0.351097 4.29083 0.207217C4.79442 0.0633364 5.31183 -0.00583677 5.84308 -0.000302915C6.37986 -0.000302915 6.89728 0.0688703 7.39533 0.207217C7.89337 0.345563 8.35822 0.542015 8.78986 0.796572C9.2215 1.05113 9.61717 1.35549 9.97687 1.70966C10.3366 2.06382 10.6409 2.45673 10.89 2.88837C11.139 3.32001 11.3354 3.78762 11.4793 4.2912C11.6232 4.79478 11.6924 5.3122 11.6868 5.84345C11.6868 6.52964 11.5734 7.19094 11.3465 7.82733C11.1196 8.46373 10.782 9.04755 10.3338 9.5788L16.8416 16.0949ZM9.51203 4.35761L8.39142 3.237L4.78058 6.83954L3.48566 5.54462L2.35675 6.67353L4.78058 9.09735L9.51203 4.35761Z" fill="white"/>
</g>
<defs>
<clipPath id="clip0_233_423">
<rect width="17" height="17" fill="white"/>
</clipPath>
</defs>
</svg>
