<svg width="25" height="25" viewBox="0 0 25 25" fill="none" xmlns="http://www.w3.org/2000/svg">
<path d="M5.33325 7.04169H3.99992C3.29267 7.04169 2.6144 7.31386 2.1143 7.79833C1.6142 8.2828 1.33325 8.93988 1.33325 9.62502V21.25C1.33325 21.9352 1.6142 22.5922 2.1143 23.0767C2.6144 23.5612 3.29267 23.8334 3.99992 23.8334H15.9999C16.7072 23.8334 17.3854 23.5612 17.8855 23.0767C18.3856 22.5922 18.6666 21.9352 18.6666 21.25V19.9584" stroke="black" stroke-width="2" stroke-linecap="round" stroke-linejoin="round"/>
<path d="M17.3333 4.45835L21.3333 8.33335M23.18 6.50564C23.7051 5.99692 24.0001 5.30695 24.0001 4.58752C24.0001 3.86808 23.7051 3.17811 23.18 2.66939C22.6549 2.16067 21.9426 1.87488 21.2 1.87488C20.4574 1.87488 19.7451 2.16067 19.22 2.66939L8 13.5V17.375H12L23.18 6.50564Z" stroke="black" stroke-width="2" stroke-linecap="round" stroke-linejoin="round"/>
</svg>
