<svg width="20" height="12" viewBox="0 0 20 12" fill="none" xmlns="http://www.w3.org/2000/svg">
<path d="M19.9199 0.62C19.8185 0.375651 19.6243 0.181475 19.3799 0.0799999C19.2597 0.028759 19.1306 0.00157999 18.9999 0H13.9999C13.7347 0 13.4804 0.105357 13.2928 0.292893C13.1053 0.48043 12.9999 0.734784 12.9999 1C12.9999 1.26522 13.1053 1.51957 13.2928 1.70711C13.4804 1.89464 13.7347 2 13.9999 2H16.5899L10.9999 7.59L7.70994 4.29C7.61698 4.19627 7.50638 4.12188 7.38452 4.07111C7.26266 4.02034 7.13195 3.9942 6.99994 3.9942C6.86793 3.9942 6.73722 4.02034 6.61536 4.07111C6.4935 4.12188 6.3829 4.19627 6.28994 4.29L0.289939 10.29C0.19621 10.383 0.121816 10.4936 0.0710475 10.6154C0.0202789 10.7373 -0.00585938 10.868 -0.00585938 11C-0.00585937 11.132 0.0202789 11.2627 0.0710475 11.3846C0.121816 11.5064 0.19621 11.617 0.289939 11.71C0.382902 11.8037 0.493503 11.8781 0.615362 11.9289C0.737222 11.9797 0.867927 12.0058 0.999939 12.0058C1.13195 12.0058 1.26266 11.9797 1.38452 11.9289C1.50637 11.8781 1.61698 11.8037 1.70994 11.71L6.99994 6.41L10.2899 9.71C10.3829 9.80373 10.4935 9.87812 10.6154 9.92889C10.7372 9.97966 10.8679 10.0058 10.9999 10.0058C11.132 10.0058 11.2627 9.97966 11.3845 9.92889C11.5064 9.87812 11.617 9.80373 11.7099 9.71L17.9999 3.41V6C17.9999 6.26522 18.1053 6.51957 18.2928 6.70711C18.4804 6.89464 18.7347 7 18.9999 7C19.2652 7 19.5195 6.89464 19.707 6.70711C19.8946 6.51957 19.9999 6.26522 19.9999 6V1C19.9984 0.869323 19.9712 0.740222 19.9199 0.62Z" fill="#2660B8"/>
</svg>
