<svg width="20"  viewBox="0 0 25 23" fill="none" xmlns="http://www.w3.org/2000/svg">
<g id="Eye off" opacity="0.2" clip-path="url(#clip0_45_113)">
<path id="Icon" d="M18.6876 17.1925C16.9069 18.4412 14.7387 19.133 12.5001 19.1666C5.20842 19.1666 1.04175 11.5 1.04175 11.5C2.33747 9.27846 4.1346 7.33756 6.31258 5.80748M10.3126 4.06331C11.0296 3.90891 11.7637 3.83172 12.5001 3.83331C19.7917 3.83331 23.9584 11.5 23.9584 11.5C23.3261 12.5883 22.572 13.6128 21.7084 14.5571M14.7084 13.5316C14.4223 13.8141 14.0773 14.0407 13.694 14.1978C13.3107 14.3549 12.8969 14.4394 12.4773 14.4462C12.0577 14.4531 11.6409 14.382 11.2518 14.2374C10.8626 14.0929 10.5092 13.8776 10.2124 13.6046C9.91568 13.3316 9.68174 13.0064 9.52457 12.6484C9.3674 12.2904 9.29021 11.907 9.29762 11.521C9.30502 11.1349 9.39686 10.7542 9.56766 10.4016C9.73846 10.0489 9.98472 9.73152 10.2917 9.46831M1.04175 0.958313L23.9584 22.0416" stroke="#B3B3B3" stroke-width="4" stroke-linecap="round" stroke-linejoin="round"/>
</g>
<defs>
<clipPath id="clip0_45_113">
<rect width="25" height="23" fill="white "/>
</clipPath>
</defs>
</svg>
