<svg width="45" height="45" viewBox="0 0 45 45" fill="none" xmlns="http://www.w3.org/2000/svg">
<path d="M12.5606 4.21875C10.9856 4.21875 9.66187 4.21875 8.61188 4.35938C7.49812 4.50938 6.48 4.84125 5.66063 5.66063C4.84125 6.48 4.50938 7.49813 4.35938 8.61188C4.21875 9.66188 4.21875 10.9856 4.21875 12.5606V12.75C4.21875 14.325 4.21875 15.6488 4.35938 16.6988C4.50938 17.8125 4.84125 18.8306 5.66063 19.65C6.48 20.4694 7.49812 20.8013 8.61188 20.9513C9.66187 21.0919 10.9856 21.0919 12.5606 21.0919H12.75C14.325 21.0919 15.6488 21.0919 16.6988 20.9513C17.8125 20.8013 18.8306 20.4694 19.65 19.65C20.4694 18.8306 20.8013 17.8125 20.9513 16.6988C21.0919 15.6488 21.0919 14.325 21.0919 12.75V12.5625C21.0919 10.9875 21.0919 9.66375 20.9513 8.61375C20.8013 7.5 20.4694 6.48188 19.65 5.6625C18.8306 4.84312 17.8125 4.51125 16.6988 4.36125C15.6488 4.22062 14.325 4.22062 12.75 4.22062L12.5606 4.21875ZM32.2481 4.21875C30.6731 4.21875 29.3494 4.21875 28.2994 4.35938C27.1856 4.50938 26.1675 4.84125 25.3481 5.66063C24.5287 6.48 24.1969 7.49813 24.0469 8.61188C23.9062 9.66188 23.9062 10.9856 23.9062 12.5606V12.75C23.9062 14.325 23.9062 15.6488 24.0469 16.6988C24.1969 17.8125 24.5287 18.8306 25.3481 19.65C26.1675 20.4694 27.1856 20.8013 28.2994 20.9513C29.3494 21.0919 30.6731 21.0919 32.2481 21.0919H32.4394C34.0144 21.0919 35.3381 21.0919 36.3881 20.9513C37.5019 20.8013 38.52 20.4694 39.3394 19.65C40.1588 18.8306 40.4906 17.8125 40.6406 16.6988C40.7812 15.6488 40.7812 14.325 40.7812 12.75V12.5625C40.7812 10.9875 40.7812 9.66375 40.6406 8.61375C40.4906 7.5 40.1588 6.48188 39.3394 5.6625C38.52 4.84312 37.5019 4.51125 36.3881 4.36125C35.3381 4.22062 34.0163 4.22062 32.4412 4.22062L32.2481 4.21875ZM12.5606 23.9194C10.9856 23.9194 9.66187 23.9194 8.61188 24.06C7.49812 24.21 6.48 24.5419 5.66063 25.3613C4.84125 26.1806 4.50938 27.1988 4.35938 28.3125C4.21875 29.3625 4.21875 30.6863 4.21875 32.2613V32.4525C4.21875 34.0275 4.21875 35.3513 4.35938 36.4013C4.50938 37.515 4.84125 38.5331 5.66063 39.3525C6.48 40.1719 7.49812 40.5037 8.61188 40.6538C9.66187 40.7944 10.9856 40.7944 12.5606 40.7944H12.75C14.325 40.7944 15.6488 40.7944 16.6988 40.6538C17.8125 40.5037 18.8306 40.1719 19.65 39.3525C20.4694 38.5331 20.8013 37.515 20.9513 36.4013C21.0919 35.3513 21.0919 34.0275 21.0919 32.4525V32.2613C21.0919 30.6863 21.0919 29.3644 20.9513 28.3125C20.8013 27.1988 20.4694 26.1806 19.65 25.3613C18.8306 24.5419 17.8125 24.21 16.6988 24.06C15.6488 23.9194 14.325 23.9194 12.75 23.9194H12.5606ZM32.2481 23.9194C30.6731 23.9194 29.3494 23.9194 28.2994 24.06C27.1856 24.21 26.1675 24.5419 25.3481 25.3613C24.5287 26.1806 24.1969 27.1988 24.0469 28.3125C23.9062 29.3625 23.9062 30.6863 23.9062 32.2613V32.4525C23.9062 34.0275 23.9062 35.3513 24.0469 36.4013C24.1969 37.515 24.5287 38.5331 25.3481 39.3525C26.1675 40.1719 27.1856 40.5037 28.2994 40.6538C29.3494 40.7944 30.6731 40.7944 32.2481 40.7944H32.4394C34.0144 40.7944 35.3381 40.7944 36.3881 40.6538C37.5019 40.5037 38.52 40.1719 39.3394 39.3525C40.1588 38.5331 40.4906 37.515 40.6406 36.4013C40.7812 35.3513 40.7812 34.0275 40.7812 32.4525V32.2613C40.7812 30.6863 40.7812 29.3644 40.6406 28.3125C40.4906 27.1988 40.1588 26.1806 39.3394 25.3613C38.52 24.5419 37.5019 24.21 36.3881 24.06C35.3381 23.9194 34.0144 23.9194 32.4412 23.9194H32.2481Z" fill="#898092"/>
</svg>
