<svg width="42" height="42" viewBox="0 0 42 42" fill="none" xmlns="http://www.w3.org/2000/svg">
<path d="M2.78916 3.64209C1.8618 3.64209 1.11572 4.45399 1.11572 5.46318V9.10537C1.11572 10.1146 1.8618 10.9265 2.78916 10.9265H6.13604C7.0634 10.9265 7.80947 10.1146 7.80947 9.10537V5.46318C7.80947 4.45399 7.0634 3.64209 6.13604 3.64209H2.78916ZM13.3876 4.85615C12.1534 4.85615 11.1563 5.94122 11.1563 7.28428C11.1563 8.62733 12.1534 9.7124 13.3876 9.7124H33.4689C34.703 9.7124 35.7001 8.62733 35.7001 7.28428C35.7001 5.94122 34.703 4.85615 33.4689 4.85615H13.3876ZM13.3876 16.9968C12.1534 16.9968 11.1563 18.0818 11.1563 19.4249C11.1563 20.768 12.1534 21.853 13.3876 21.853H33.4689C34.703 21.853 35.7001 20.768 35.7001 19.4249C35.7001 18.0818 34.703 16.9968 33.4689 16.9968H13.3876ZM13.3876 29.1374C12.1534 29.1374 11.1563 30.2225 11.1563 31.5655C11.1563 32.9086 12.1534 33.9937 13.3876 33.9937H33.4689C34.703 33.9937 35.7001 32.9086 35.7001 31.5655C35.7001 30.2225 34.703 29.1374 33.4689 29.1374H13.3876ZM1.11572 17.6038V21.246C1.11572 22.2552 1.8618 23.0671 2.78916 23.0671H6.13604C7.0634 23.0671 7.80947 22.2552 7.80947 21.246V17.6038C7.80947 16.5946 7.0634 15.7827 6.13604 15.7827H2.78916C1.8618 15.7827 1.11572 16.5946 1.11572 17.6038ZM2.78916 27.9233C1.8618 27.9233 1.11572 28.7352 1.11572 29.7444V33.3866C1.11572 34.3958 1.8618 35.2077 2.78916 35.2077H6.13604C7.0634 35.2077 7.80947 34.3958 7.80947 33.3866V29.7444C7.80947 28.7352 7.0634 27.9233 6.13604 27.9233H2.78916Z" fill="#777284"/>
</svg>
