<svg width="201" height="3" viewBox="0 0 201 3" fill="none" xmlns="http://www.w3.org/2000/svg">
<path d="M103.106 0.525438L105.049 2.78449C105.297 3.07308 105.703 3.07308 105.951 2.78449L107.894 0.525236C108.142 0.236648 107.939 0.000935674 107.443 0.000935674H103.557C103.061 0.000935674 102.858 0.23685 103.106 0.525438Z" fill="black"/>
<path d="M195.663 0.524442L197.606 2.7835C197.854 3.07209 198.26 3.07209 198.508 2.7835L200.451 0.52424C200.699 0.235652 200.496 -6.10352e-05 200 -6.10352e-05H196.114C195.618 -6.10352e-05 195.415 0.235854 195.663 0.524442Z" fill="black"/>
<path d="M1.00003 0.525438L2.94308 2.78449C3.19111 3.07308 3.59698 3.07308 3.84501 2.78449L5.78805 0.525236C6.03638 0.236648 5.83315 0.000935674 5.33709 0.000935674H1.45099C0.954936 0.000935674 0.751702 0.23685 1.00003 0.525438Z" fill="black"/>
</svg>
