<svg width="33" height="26" viewBox="0 0 33 26" fill="none" xmlns="http://www.w3.org/2000/svg">
<path fill-rule="evenodd" clip-rule="evenodd" d="M0.51113 1.82975C0.646839 1.51005 0.876552 1.23683 1.17123 1.04464C1.4659 0.852448 1.8123 0.749913 2.16663 0.75H20.0833C21.7303 0.75 23.3612 1.06686 24.8828 1.68248C26.4044 2.2981 27.787 3.20042 28.9516 4.33794C30.1162 5.47546 31.04 6.82589 31.6703 8.31213C32.3006 9.79837 32.625 11.3913 32.625 13C32.625 14.6087 32.3006 16.2016 31.6703 17.6879C31.04 19.1741 30.1162 20.5245 28.9516 21.6621C27.787 22.7996 26.4044 23.7019 24.8828 24.3175C23.3612 24.9331 21.7303 25.25 20.0833 25.25H3.9583C3.48312 25.25 3.0274 25.0656 2.6914 24.7374C2.35539 24.4093 2.16663 23.9641 2.16663 23.5C2.16663 23.0359 2.35539 22.5907 2.6914 22.2626C3.0274 21.9344 3.48312 21.75 3.9583 21.75H20.0833C22.4592 21.75 24.7378 20.8281 26.4178 19.1872C28.0978 17.5462 29.0416 15.3206 29.0416 13C29.0416 10.6794 28.0978 8.45376 26.4178 6.81282C24.7378 5.17187 22.4592 4.25 20.0833 4.25H6.49171L9.70417 7.38775C10.0305 7.7178 10.2111 8.15986 10.207 8.6187C10.203 9.07755 10.0145 9.51647 9.68235 9.84093C9.35016 10.1654 8.90079 10.3494 8.43102 10.3534C7.96125 10.3574 7.50867 10.181 7.17076 9.86225L0.899922 3.73725C0.649209 3.49252 0.478447 3.18066 0.40924 2.84111C0.340034 2.50157 0.375492 2.14961 0.51113 1.82975Z" fill="black"/>
</svg>
