<svg width="71" height="72" viewBox="0 0 71 72" fill="none" xmlns="http://www.w3.org/2000/svg">
<path fill-rule="evenodd" clip-rule="evenodd" d="M33.4095 0.559689C34.0364 0.193936 34.7607 0 35.5 0C36.2393 0 36.9637 0.193936 37.5906 0.559689L64.823 16.448L35.5 32.5499L6.17701 16.448L33.4095 0.559689ZM0.0315699 21.6177C0.01009 21.7752 -0.000450158 21.9339 1.47294e-05 22.0927V51.5496C1.31516e-05 52.1741 0.170168 52.7883 0.494477 53.3345C0.818786 53.8808 1.28659 54.341 1.8539 54.672L31.5556 72V38.9273L0.0315699 21.6177ZM39.4445 72L69.1461 54.672C69.7134 54.341 70.1812 53.8808 70.5055 53.3345C70.8298 52.7883 71 52.1741 71 51.5496V22.0927C71 21.9331 70.9895 21.7748 70.9684 21.6177L39.4445 38.9236V72Z" fill="#2840A1"/>
</svg>
