<svg width="26" height="23" viewBox="0 0 26 23" fill="none" xmlns="http://www.w3.org/2000/svg">
<path d="M12.7538 21.6667C19.0864 21.6667 24.2202 16.6082 24.2202 13.1568C24.2202 9.70551 19.0864 4.64703 12.7538 4.64703C6.42113 4.64703 1.28735 9.70916 1.28735 13.1568C1.28735 16.6045 6.42113 21.6667 12.7538 21.6667Z" stroke="white" stroke-width="2" stroke-linejoin="round"/>
<path d="M12.7538 16.804C13.7675 16.804 14.7397 16.4197 15.4564 15.7358C16.1732 15.0518 16.5759 14.1241 16.5759 13.1569C16.5759 12.1896 16.1732 11.262 15.4564 10.578C14.7397 9.89407 13.7675 9.50983 12.7538 9.50983C11.7401 9.50983 10.7679 9.89407 10.0511 10.578C9.33433 11.262 8.93164 12.1896 8.93164 13.1569C8.93164 14.1241 9.33433 15.0518 10.0511 15.7358C10.7679 16.4197 11.7401 16.804 12.7538 16.804Z" stroke="white" stroke-width="2" stroke-linejoin="round"/>
<path d="M5.91455 3.59306L7.56699 5.79346M20.159 3.86294L18.506 6.06334M12.7594 1V4.64706" stroke="white" stroke-width="2" stroke-linecap="round"/>
</svg>
