<svg width="23" height="21" viewBox="0 0 23 21" fill="none" xmlns="http://www.w3.org/2000/svg">
<path fill-rule="evenodd" clip-rule="evenodd" d="M20.2383 1.17943C19.4115 0.420626 18.3341 0.000108655 17.2166 0H14.1952C14.1952 0.721388 13.9113 1.41323 13.4058 1.92333C12.9004 2.43343 12.2148 2.72 11.5 2.72C10.7852 2.72 10.0996 2.43343 9.59419 1.92333C9.08874 1.41323 8.80478 0.721388 8.80478 0H5.78345C4.66589 0.000108655 3.5885 0.420626 2.76169 1.17943C1.93488 1.93822 1.41803 2.98081 1.31209 4.10357L0.0120953 17.8758C-0.0238547 18.2575 0.0205519 18.6425 0.142403 19.0056C0.264254 19.3688 0.770348 18.8814 1.02869 19.1625V20.0692C1.02869 20.3096 2.34747 20.6833 2.51595 20.8533C2.51595 20.5771 2.36752 20.8533 2.60579 20.8533H4.31276L4.29983 20.7409L4.31281 20.7269C4.35368 20.6992 4.27919 17.322 4.31276 20.8533V19.04V17.2687L18.6872 17.5346V20.6543V20.8533H20.4841C20.5421 20.8533 20.6684 20.8634 20.8288 20.8762C21.327 20.916 21.5646 20.1978 21.692 20.0692C21.7218 19.666 22.3337 20.1388 22.3512 19.9034C22.575 19.6398 22.7471 19.3351 22.8576 19.0056C22.9794 18.6425 23.0239 18.2575 22.9879 17.8758L21.6879 4.10357C21.582 2.98081 21.0651 1.93822 20.2383 1.17943ZM22.3512 19.9034C22.3769 19.5773 22.3978 19.2729 22.3978 19.2729C22.3978 19.2729 22.3852 19.4433 22.3512 19.9034ZM22.3512 19.9034C22.3192 20.3073 22.2809 19.9829 22.2809 20.6543V19.9829C22.3039 19.9578 22.3291 19.9292 22.3512 19.9034ZM4.31276 20.8533L4.31281 20.7269C4.29973 17.0311 4.28843 17.0752 4.29983 20.7409C4.35596 17.1287 4.38029 17.2266 4.31276 20.8533C4.29969 17.2999 4.32259 20.6674 4.31276 20.8533ZM4.31276 20.8533H2.69563H2.51595L4.31281 20.7269L4.31276 20.8533Z" fill="#2840A1"/>
<path fill-rule="evenodd" clip-rule="evenodd" d="M4.31281 20.7269C4.2987 19.6951 4.38033 17.1002 4.31276 20.8533L4.29983 20.7409L4.31281 20.7269L4.31276 20.8533C4.31282 16.176 4.33466 22.3263 4.31281 20.7269Z" fill="black"/>
</svg>
