<svg width="17" height="17" viewBox="0 0 17 17" fill="none" xmlns="http://www.w3.org/2000/svg">
<g opacity="0.5" clip-path="url(#clip0_249_2900)">
<path d="M16.8421 16.095C16.9472 16.2002 16.9998 16.3247 16.9998 16.4686C16.9998 16.6124 16.9472 16.737 16.8421 16.8421C16.737 16.9472 16.6124 16.9998 16.4686 16.9998C16.3247 16.9998 16.2002 16.9472 16.095 16.8421L9.57892 10.3343C9.0532 10.777 8.47215 11.1118 7.83576 11.3387C7.19936 11.5656 6.5353 11.6818 5.84357 11.6873C5.30679 11.6873 4.78937 11.6181 4.29132 11.4798C3.79328 11.3415 3.32843 11.145 2.89679 10.8904C2.46515 10.6359 2.06948 10.3315 1.70978 9.97736C1.35008 9.62319 1.04572 9.23029 0.796694 8.79865C0.547671 8.36701 0.351219 7.8994 0.207339 7.39582C0.0634585 6.89223 -0.0057147 6.37482 -0.000180845 5.84357C-0.000180845 5.30679 0.0689923 4.78937 0.207339 4.29132C0.345685 3.79328 0.542137 3.32843 0.796694 2.89679C1.05125 2.46515 1.35561 2.06948 1.70978 1.70978C2.06395 1.35008 2.45685 1.04572 2.88849 0.796694C3.32013 0.547671 3.78774 0.351219 4.29132 0.207339C4.7949 0.0634585 5.31232 -0.0057147 5.84357 -0.000180845C6.38035 -0.000180845 6.89777 0.0689923 7.39582 0.207339C7.89386 0.345685 8.35871 0.542137 8.79035 0.796694C9.22199 1.05125 9.61766 1.35561 9.97736 1.70978C10.3371 2.06395 10.6414 2.45685 10.8904 2.88849C11.1395 3.32013 11.3359 3.78774 11.4798 4.29132C11.6237 4.7949 11.6929 5.31232 11.6873 5.84357C11.6873 6.52977 11.5739 7.19106 11.347 7.82746C11.1201 8.46385 10.7825 9.04767 10.3343 9.57892L16.8421 16.095ZM9.51251 4.35773L8.39191 3.23712L4.78107 6.83966L3.48615 5.54474L2.35724 6.67365L4.78107 9.09748L9.51251 4.35773Z" fill="white"/>
</g>
<defs>
<clipPath id="clip0_249_2900">
<rect width="17" height="17" fill="white"/>
</clipPath>
</defs>
</svg>
