<svg width="28" height="28" viewBox="0 0 28 28" fill="none" xmlns="http://www.w3.org/2000/svg">
<path d="M14.0752 1.18286C7.6539 4.19981 2.31563 12.9875 0.957031 19.5425C10.5 23.6252 3.25753 22.5179 9.82155 22.9895L10.3941 22.3641C8.85959 20.7851 6.84299 19.496 4.18359 18.213C5.61323 14.6565 7.7945 9.27388 10.5667 8.96052C11.6514 8.83785 12.8116 9.4929 14.0752 11.336C18.0307 4.75877 21.7869 13.4437 23.9668 18.213C21.3589 19.6269 19.3457 20.918 17.7887 22.5179L18.2946 23.087C25.375 23.0562 19.25 23.9312 27.1934 19.5425C25.5819 13.0694 20.6303 4.37333 14.0752 1.18286Z" fill="#2840A1"/>
</svg>
