<svg width="17" height="17" viewBox="0 0 17 17" fill="none" xmlns="http://www.w3.org/2000/svg">
<g clip-path="url(#clip0_121_116)">
<path d="M16.8421 16.0949C16.9472 16.2001 16.9998 16.3246 16.9998 16.4684C16.9998 16.6123 16.9472 16.7368 16.8421 16.842C16.737 16.9471 16.6124 16.9997 16.4686 16.9997C16.3247 16.9997 16.2002 16.9471 16.095 16.842L9.57892 10.3342C9.0532 10.7769 8.47215 11.1117 7.83576 11.3386C7.19936 11.5655 6.5353 11.6817 5.84357 11.6872C5.30679 11.6872 4.78937 11.618 4.29132 11.4797C3.79328 11.3413 3.32843 11.1449 2.89679 10.8903C2.46515 10.6358 2.06948 10.3314 1.70978 9.97724C1.35008 9.62307 1.04572 9.23017 0.796694 8.79852C0.547671 8.36688 0.351219 7.89927 0.207339 7.39569C0.0634585 6.89211 -0.0057147 6.3747 -0.000180845 5.84345C-0.000180845 5.30666 0.0689923 4.78925 0.207339 4.2912C0.345685 3.79315 0.542137 3.32831 0.796694 2.89667C1.05125 2.46503 1.35561 2.06936 1.70978 1.70966C2.06395 1.34996 2.45685 1.0456 2.88849 0.796572C3.32013 0.547549 3.78774 0.351097 4.29132 0.207217C4.7949 0.0633364 5.31232 -0.00583677 5.84357 -0.000302915C6.38035 -0.000302915 6.89777 0.0688703 7.39582 0.207217C7.89386 0.345563 8.35871 0.542015 8.79035 0.796572C9.22199 1.05113 9.61766 1.35549 9.97736 1.70966C10.3371 2.06382 10.6414 2.45673 10.8904 2.88837C11.1395 3.32001 11.3359 3.78762 11.4798 4.2912C11.6237 4.79478 11.6929 5.3122 11.6873 5.84345C11.6873 6.52964 11.5739 7.19094 11.347 7.82733C11.1201 8.46373 10.7825 9.04755 10.3343 9.5788L16.8421 16.0949ZM9.51251 4.35761L8.39191 3.237L4.78107 6.83954L3.48615 5.54462L2.35724 6.67353L4.78107 9.09735L9.51251 4.35761Z" fill="#BF6AF2"/>
</g>
<defs>
<clipPath id="clip0_121_116">
<rect width="17" height="17" fill="white"/>
</clipPath>
</defs>
</svg>
