<svg width="32" height="31" viewBox="0 0 32 31" fill="none" xmlns="http://www.w3.org/2000/svg">
<path d="M9.33325 9.04169H7.99992C7.29267 9.04169 6.6144 9.31386 6.1143 9.79833C5.6142 10.2828 5.33325 10.9399 5.33325 11.625V23.25C5.33325 23.9352 5.6142 24.5922 6.1143 25.0767C6.6144 25.5612 7.29267 25.8334 7.99992 25.8334H19.9999C20.7072 25.8334 21.3854 25.5612 21.8855 25.0767C22.3856 24.5922 22.6666 23.9352 22.6666 23.25V21.9584" stroke="white" stroke-width="2" stroke-linecap="round" stroke-linejoin="round"/>
<path d="M21.3333 6.45835L25.3333 10.3333M27.18 8.50564C27.7051 7.99692 28.0001 7.30695 28.0001 6.58752C28.0001 5.86808 27.7051 5.17811 27.18 4.66939C26.6549 4.16067 25.9426 3.87488 25.2 3.87488C24.4574 3.87488 23.7451 4.16067 23.22 4.66939L12 15.5V19.375H16L27.18 8.50564Z" stroke="white" stroke-width="2" stroke-linecap="round" stroke-linejoin="round"/>
</svg>
