<svg width="37" height="37" viewBox="0 0 37 37" fill="none" xmlns="http://www.w3.org/2000/svg">
<path fill-rule="evenodd" clip-rule="evenodd" d="M22.2424 0.956611C21.0483 0.504984 19.7757 0.298261 18.5001 0.348754C17.1919 0.294202 15.8868 0.513045 14.668 0.991309C13.4492 1.46957 12.3435 2.19674 11.4216 3.12639C10.4997 4.05603 9.78172 5.16772 9.31363 6.39046C8.84553 7.6132 8.63756 8.92011 8.70301 10.2278C8.72151 13.2353 9.92136 16.3513 11.4436 19.1606C12.5034 21.1163 13.7905 23.0509 15.1331 24.8586C13.1944 27.1645 11.1409 29.3714 8.98051 31.471L8.35943 32.063C7.86878 32.5444 7.58496 33.198 7.56817 33.8851C7.55139 34.5722 7.80296 35.2389 8.26953 35.7436C8.73609 36.2483 9.38094 36.5514 10.0673 36.5886C10.7536 36.6258 11.4274 36.3941 11.9458 35.9428C12.81 35.1393 13.6451 34.3042 14.4671 33.4611C15.5956 32.3035 17.0095 30.7918 18.5001 29.0608C19.9907 30.7945 21.4072 32.3035 22.5331 33.4611C23.9867 34.9543 26.5106 38.2632 28.7887 35.7948C29.2643 35.2799 29.5158 34.5972 29.488 33.8969C29.4603 33.1966 29.1555 32.536 28.6407 32.0604L28.6354 32.0551H28.6328C26.2474 29.783 23.9887 27.3814 21.8671 24.8613C23.2311 23.0513 24.4641 21.1463 25.5565 19.1606C27.0788 16.3513 28.2786 13.2353 28.2971 10.2278C28.398 8.24104 27.8666 6.27348 26.7792 4.60771C25.6918 2.94195 24.1017 1.66371 22.2424 0.956611ZM18.5001 20.4953C19.3907 19.2214 20.2153 17.9238 20.9104 16.642C22.2847 14.1048 23.0114 11.8848 23.0114 10.1511C23.0114 7.1594 20.9104 5.63183 18.3468 5.63183C15.7832 5.63183 13.9861 7.70383 13.9861 10.1511C13.9861 11.8875 14.7181 14.1075 16.0898 16.642C16.7849 17.9238 17.6068 19.2214 18.5001 20.4953Z" fill="#2840A1"/>
</svg>
