<svg width="28" height="32" viewBox="0 0 28 32" fill="none" xmlns="http://www.w3.org/2000/svg">
<g filter="url(#filter0_d_237_1205)">
<path d="M14 4.66666C15.2377 4.66666 16.4247 5.15832 17.2999 6.03349C18.175 6.90866 18.6667 8.09565 18.6667 9.33332C18.6667 10.571 18.175 11.758 17.2999 12.6332C16.4247 13.5083 15.2377 14 14 14C12.7623 14 11.5754 13.5083 10.7002 12.6332C9.82502 11.758 9.33335 10.571 9.33335 9.33332C9.33335 8.09565 9.82502 6.90866 10.7002 6.03349C11.5754 5.15832 12.7623 4.66666 14 4.66666ZM14 16.3333C19.1567 16.3333 23.3334 18.4217 23.3334 21V23.3333H4.66669V21C4.66669 18.4217 8.84335 16.3333 14 16.3333Z" fill="white"/>
</g>
<defs>
<filter id="filter0_d_237_1205" x="-4" y="0" width="36" height="36" filterUnits="userSpaceOnUse" color-interpolation-filters="sRGB">
<feFlood flood-opacity="0" result="BackgroundImageFix"/>
<feColorMatrix in="SourceAlpha" type="matrix" values="0 0 0 0 0 0 0 0 0 0 0 0 0 0 0 0 0 0 127 0" result="hardAlpha"/>
<feOffset dy="4"/>
<feGaussianBlur stdDeviation="2"/>
<feComposite in2="hardAlpha" operator="out"/>
<feColorMatrix type="matrix" values="0 0 0 0 0 0 0 0 0 0 0 0 0 0 0 0 0 0 0.25 0"/>
<feBlend mode="normal" in2="BackgroundImageFix" result="effect1_dropShadow_237_1205"/>
<feBlend mode="normal" in="SourceGraphic" in2="effect1_dropShadow_237_1205" result="shape"/>
</filter>
</defs>
</svg>
