<svg width="38" height="38" viewBox="0 0 38 38" fill="none" xmlns="http://www.w3.org/2000/svg">
<g id="&#240;&#159;&#166;&#134; icon &#34;eye outline&#34;">
<g id="Group">
<path id="Vector" d="M34.6278 18.2083C33.6144 16.4508 28.0411 7.63167 18.5728 7.91667C9.81694 8.13833 4.75027 15.8333 3.37277 18.2083C3.2338 18.449 3.16064 18.7221 3.16064 19C3.16064 19.2779 3.2338 19.551 3.37277 19.7917C4.37027 21.5175 9.70611 30.0833 19.0319 30.0833H19.4278C28.1836 29.8617 33.2661 22.1667 34.6278 19.7917C34.7667 19.551 34.8399 19.2779 34.8399 19C34.8399 18.7221 34.7667 18.449 34.6278 18.2083ZM19.3486 26.9167C12.5244 27.075 8.07527 21.2325 6.68194 19C8.26527 16.4508 12.3978 11.2417 18.7311 11.0833C25.5236 10.9092 29.9886 16.7675 31.3978 19C29.7669 21.5492 25.6819 26.7583 19.3486 26.9167Z" fill="white"/>
<path id="Vector_2" d="M19.0002 13.4584C17.9041 13.4584 16.8327 13.7834 15.9214 14.3923C15.0101 15.0012 14.2998 15.8667 13.8803 16.8793C13.4609 17.8919 13.3512 19.0062 13.565 20.0812C13.7788 21.1561 14.3066 22.1436 15.0816 22.9186C15.8566 23.6936 16.8441 24.2214 17.919 24.4352C18.994 24.6491 20.1083 24.5393 21.1209 24.1199C22.1335 23.7004 22.999 22.9901 23.6079 22.0788C24.2168 21.1675 24.5418 20.0961 24.5418 19C24.5418 17.5303 23.958 16.1208 22.9187 15.0815C21.8795 14.0422 20.4699 13.4584 19.0002 13.4584ZM19.0002 21.375C18.5304 21.375 18.0713 21.2357 17.6807 20.9748C17.2901 20.7138 16.9857 20.3429 16.806 19.9089C16.6262 19.4749 16.5792 18.9974 16.6708 18.5367C16.7624 18.076 16.9886 17.6528 17.3208 17.3207C17.6529 16.9885 18.0761 16.7623 18.5368 16.6707C18.9975 16.579 19.4751 16.6261 19.909 16.8058C20.343 16.9856 20.7139 17.29 20.9749 17.6806C21.2359 18.0711 21.3752 18.5303 21.3752 19C21.3752 19.6299 21.1249 20.234 20.6795 20.6794C20.2341 21.1248 19.6301 21.375 19.0002 21.375Z" fill="white"/>
</g>
</g>
</svg>
