<svg width="19" height="13" viewBox="0 0 19 13" fill="none" xmlns="http://www.w3.org/2000/svg">
<path d="M11.86 12.74C11.06 12.74 10.5867 12.6667 10.44 12.52C10.3733 12.4533 10.18 12.3267 9.86 12.14C9.55333 11.9533 9.10667 11.7133 8.52 11.42C8.38667 11.3533 8.14667 11.2267 7.8 11.04C7.45333 10.84 7.04667 10.6267 6.58 10.4C6.51333 10.36 6.4 10.3 6.24 10.22C6.09333 10.14 5.94 10.06 5.78 9.98C5.62 9.88667 5.5 9.82 5.42 9.78L5.06 9.6C5.03333 9.58667 4.99333 9.56667 4.94 9.54C4.88667 9.51333 4.82667 9.48 4.76 9.44L4.2 9.16C4.10667 9.10667 4 9.04667 3.88 8.98C3.77333 8.91333 3.66 8.85333 3.54 8.8L0.9 7.4C0.793333 7.09333 0.7 6.81333 0.62 6.56C0.54 6.30667 0.486667 6.08 0.46 5.88C0.433333 5.68 0.38 5.43333 0.3 5.14C0.22 4.84667 0.126667 4.50667 0.0200001 4.12C0.18 3.77333 0.326667 3.47333 0.46 3.22C0.593333 2.95333 0.713333 2.74667 0.82 2.6C0.9 2.49333 0.986667 2.37333 1.08 2.24C1.17333 2.09333 1.3 1.89333 1.46 1.64C1.52667 1.54667 1.58667 1.44667 1.64 1.34C1.70667 1.22 1.76667 1.10667 1.82 1C1.92667 0.973332 2.06667 0.933333 2.24 0.88C2.41333 0.826666 2.54667 0.793333 2.64 0.78C2.86667 0.74 3.12667 0.673333 3.42 0.579999C3.71333 0.486666 3.94667 0.413333 4.12 0.359999C4.30667 0.293333 4.54 0.226666 4.82 0.16L6.28 1.06C6.6 1.26 6.90667 1.43333 7.2 1.58C7.49333 1.72667 7.77333 1.88667 8.04 2.06L8.6 2.42C9 2.67333 9.30667 2.87333 9.52 3.02C9.74667 3.16667 9.88667 3.26667 9.94 3.32C9.99333 3.37333 10.1 3.44667 10.26 3.54C10.42 3.63333 10.6333 3.76 10.9 3.92C11.3 4.16 11.7 4.4 12.1 4.64C12.5133 4.86667 12.92 5.1 13.32 5.34C13.5733 5.5 13.78 5.64 13.94 5.76C14.1 5.89333 14.2933 6.08667 14.52 6.34C14.7467 6.58 14.94 6.83333 15.1 7.1L16.2 8.94C16.7733 9.9 17.2067 10.6333 17.5 11.14C17.8067 11.6467 17.9667 11.9333 17.98 12C18.02 12.12 18.04 12.2133 18.04 12.28C18.04 12.4267 17.9733 12.5267 17.84 12.58C17.72 12.6333 17.5667 12.66 17.38 12.66C17.1533 12.66 16.92 12.6667 16.68 12.68C16.44 12.68 16.2067 12.68 15.98 12.68L12.42 12.72C12.3267 12.72 12.2333 12.7267 12.14 12.74C12.0467 12.74 11.9533 12.74 11.86 12.74ZM1.5 6.68C1.52667 6.68 1.55333 6.68 1.58 6.68C1.60667 6.66667 1.63333 6.66 1.66 6.66L2.06 6.6C2.22 6.6 2.47333 6.51333 2.82 6.34C2.98 6.26 3.18667 6.17333 3.44 6.08C3.69333 5.97333 3.86 5.92 3.94 5.92C3.96667 5.89333 4.03333 5.78667 4.14 5.6C4.26 5.4 4.32667 5.27333 4.34 5.22L4.44 4.96C4.49333 4.81333 4.55333 4.69333 4.62 4.6C4.7 4.49333 4.76667 4.40667 4.82 4.34C4.94 4.19333 5.04 4.05333 5.12 3.92C5.16 3.85333 5.20667 3.78 5.26 3.7C5.32667 3.60667 5.40667 3.50667 5.5 3.4C5.48667 3.34667 5.45333 3.24667 5.4 3.1C5.34667 2.95333 5.26667 2.76 5.16 2.52C4.96 2.04 4.83333 1.72 4.78 1.56L4.58 0.919999L4.04 1.12C3.90667 1.17333 3.77333 1.22667 3.64 1.28C3.50667 1.32 3.40667 1.34667 3.34 1.36L2.34 1.64C2.31333 1.68 2.24667 1.78 2.14 1.94C2.04667 2.08667 1.98667 2.18 1.96 2.22L1.38 3.14C1.28667 3.3 1.18 3.48 1.06 3.68C0.94 3.86667 0.82 4.05333 0.7 4.24L0.98 5.18C1.03333 5.35333 1.08 5.48667 1.12 5.58C1.16 5.66 1.19333 5.74667 1.22 5.84L1.5 6.68ZM13.58 7.6V6.24L12.22 5.36C12.1267 5.29333 12.0133 5.22667 11.88 5.16C11.7467 5.08 11.6067 5.00667 11.46 4.94L11.06 4.74C11.0067 4.71333 10.9533 4.68667 10.9 4.66C10.8467 4.63333 10.8067 4.61333 10.78 4.6L9.24 3.62C9.14667 3.55333 9.06 3.5 8.98 3.46C8.91333 3.42 8.86 3.38667 8.82 3.36L5.38 1.2L5.56 1.66C5.6 1.76667 5.64 1.88 5.68 2C5.72 2.10667 5.74 2.18667 5.74 2.24C5.74 2.29333 5.76 2.4 5.8 2.56C5.85333 2.72 5.91333 2.88 5.98 3.04C6.04667 3.18667 6.09333 3.3 6.12 3.38C6.18667 3.47333 6.34667 3.59333 6.6 3.74C6.74667 3.80667 6.86667 3.87333 6.96 3.94C7.05333 4.00667 7.12667 4.07333 7.18 4.14C7.3 4.26 7.44 4.37333 7.6 4.48L7.84 4.64C7.92 4.69333 8 4.74 8.08 4.78C8.17333 4.82 8.24667 4.85333 8.3 4.88C8.54 4.96 8.69333 5.02 8.76 5.06C8.84 5.1 8.98 5.18 9.18 5.3C9.26 5.35333 9.34667 5.40667 9.44 5.46C9.53333 5.5 9.63333 5.54 9.74 5.58C9.91333 5.63333 10.0733 5.70667 10.22 5.8C10.38 5.89333 10.6333 6.05333 10.98 6.28L12.26 6.88C12.3933 6.93333 12.5133 6.99333 12.62 7.06C12.7267 7.11333 12.8133 7.16 12.88 7.2L13.58 7.6ZM2.7 5.08C2.5 5.08 2.33333 4.98667 2.2 4.8C2.08 4.6 2.02 4.37333 2.02 4.12C2.02 3.82667 2.1 3.54667 2.26 3.28C2.42 3 2.60667 2.77333 2.82 2.6C3.04667 2.41333 3.26 2.32 3.46 2.32C3.7 2.32 3.88 2.4 4 2.56C4.12 2.72 4.18 2.93333 4.18 3.2C4.18 3.32 4.13333 3.48667 4.04 3.7C3.94667 3.9 3.82667 4.10667 3.68 4.32C3.53333 4.53333 3.37333 4.71333 3.2 4.86C3.02667 5.00667 2.86 5.08 2.7 5.08ZM12.18 10.44C12.4467 10.2267 12.6467 10.0333 12.78 9.86C12.9267 9.68667 13.02 9.53333 13.06 9.4C13.1 9.26667 13.1333 9.14 13.16 9.02C13.2 8.9 13.2467 8.79333 13.3 8.7L13.42 8.44C13.2067 8.30667 13 8.18 12.8 8.06C12.6133 7.92667 12.4267 7.79333 12.24 7.66C12.0933 7.60667 11.9733 7.56 11.88 7.52C11.8 7.48 11.6867 7.41333 11.54 7.32L11.14 7.04C10.6733 6.70667 10.36 6.54 10.2 6.54C10.04 6.54 9.82 6.44 9.54 6.24L8.62 5.56C8.54 5.49333 8.42667 5.43333 8.28 5.38C8.13333 5.31333 7.88667 5.22 7.54 5.1C7.3 5.00667 7.11333 4.90667 6.98 4.8C6.9 4.73333 6.82 4.68 6.74 4.64C6.67333 4.6 6.60667 4.56 6.54 4.52L6.26 4.36C6.20667 4.32 6.14667 4.28667 6.08 4.26C6.02667 4.23333 5.96667 4.2 5.9 4.16C5.64667 4.45333 5.52 4.64667 5.52 4.74C5.52 4.84667 5.44667 5.01333 5.3 5.24L4.74 6.08L5 6.26C5.14667 6.36667 5.3 6.45333 5.46 6.52L5.72 6.64C6.01333 6.78667 6.26 6.93333 6.46 7.08C6.56667 7.14667 6.65333 7.20667 6.72 7.26C6.78667 7.31333 6.84667 7.35333 6.9 7.38L9.46 8.8C9.55333 8.85333 9.67333 8.92667 9.82 9.02C9.96667 9.11333 10.12 9.21333 10.28 9.32L11.48 10.08C11.5333 10.1067 11.5867 10.14 11.64 10.18C11.7067 10.2067 11.7667 10.2333 11.82 10.26L12.18 10.44ZM10.7 11.76L11.66 10.96C11.62 10.9333 11.58 10.9133 11.54 10.9C11.5 10.8733 11.4667 10.8467 11.44 10.82C11.4 10.7933 11.36 10.7667 11.32 10.74C11.28 10.7133 11.2333 10.6867 11.18 10.66L10.98 10.52C10.9533 10.4933 10.86 10.4333 10.7 10.34L9.5 9.62C9.46 9.59333 9.38667 9.55333 9.28 9.5C9.18667 9.43333 9.06 9.37333 8.9 9.32C8.68667 9.24 8.5 9.15333 8.34 9.06C8.19333 8.96667 8.04667 8.88667 7.9 8.82C7.82 8.72667 7.74667 8.65333 7.68 8.6C7.62667 8.54667 7.58 8.49333 7.54 8.44C7.47333 8.37333 7.32667 8.29333 7.1 8.2L6.84 8.1C6.54667 7.99333 6.31333 7.85333 6.14 7.68C5.94 7.48 5.78 7.37333 5.66 7.36C5.5 7.34667 5.32667 7.27333 5.14 7.14C4.92667 6.99333 4.74 6.88 4.58 6.8C4.42 6.70667 4.26 6.62667 4.1 6.56C4.04667 6.58667 3.92 6.62667 3.72 6.68C3.53333 6.73333 3.40667 6.76667 3.34 6.78C3.20667 6.79333 3.08 6.82667 2.96 6.88C2.85333 6.93333 2.72667 6.99333 2.58 7.06L2.22 7.24C2.56667 7.45333 2.89333 7.66 3.2 7.86C3.52 8.06 3.85333 8.24 4.2 8.4L4.82 8.68C4.88667 8.70667 4.96 8.74 5.04 8.78C5.12 8.82 5.2 8.85333 5.28 8.88C5.34667 8.90667 5.44667 8.95333 5.58 9.02C5.72667 9.08667 5.9 9.17333 6.1 9.28L7.3 9.92C7.5 10.0267 7.7 10.14 7.9 10.26C8.1 10.38 8.3 10.4933 8.5 10.6C8.63333 10.6667 8.76 10.74 8.88 10.82C9 10.9 9.12667 10.9733 9.26 11.04C9.40667 11.12 9.61333 11.2333 9.88 11.38C10.16 11.5133 10.4333 11.64 10.7 11.76ZM11.54 12.02C11.5933 12.02 11.7 12.02 11.86 12.02C12.0333 12.0067 12.2267 12 12.44 12C12.68 12 12.9267 12 13.18 12C13.4467 11.9867 13.7333 11.98 14.04 11.98C14.3867 11.98 14.7267 11.9867 15.06 12C15.3933 12 15.7267 12 16.06 12C16.22 12 16.3733 11.8867 16.52 11.66C16.6667 11.42 16.74 11.2267 16.74 11.08C16.74 11.0133 16.68 10.88 16.56 10.68C16.4533 10.48 16.3267 10.28 16.18 10.08L15.9 9.68C15.7933 9.52 15.66 9.32 15.5 9.08C15.34 8.84 15.2067 8.61333 15.1 8.4L14.94 8.08C14.9 8 14.84 7.9 14.76 7.78C14.68 7.64667 14.6 7.52667 14.52 7.42L14.22 7L14.18 7.24C14.1667 7.32 14.16 7.4 14.16 7.48C14.16 7.56 14.16 7.64667 14.16 7.74V7.86C14.1733 7.88667 14.18 7.92 14.18 7.96C14.18 8.02667 14.2467 8.17333 14.38 8.4C14.4467 8.50667 14.5133 8.62 14.58 8.74C14.6467 8.86 14.7267 8.98667 14.82 9.12C14.6867 9.01333 14.5467 8.92 14.4 8.84C14.2667 8.76 14.16 8.72 14.08 8.72C13.96 8.72 13.9 8.8 13.9 8.96C13.9 9.09333 14.02 9.3 14.26 9.58C14.5 9.84667 14.7533 10.1067 15.02 10.36C14.9533 10.3333 14.88 10.3133 14.8 10.3C14.7333 10.2867 14.6667 10.2733 14.6 10.26L14.16 10.08C14.1067 10.0533 14.02 10.0333 13.9 10.02C13.78 10.0067 13.68 10 13.6 10C13.4 10 13.2333 10.0733 13.1 10.22C12.9667 10.3667 12.9 10.4933 12.9 10.6C12.9 10.72 12.9467 10.8333 13.04 10.94C13.1467 11.0333 13.2867 11.1467 13.46 11.28C13.3133 11.28 13.1933 11.2867 13.1 11.3C13.02 11.3 12.9533 11.3 12.9 11.3C12.8333 11.3 12.76 11.3067 12.68 11.32C12.6133 11.32 12.54 11.32 12.46 11.32C12.2067 11.32 11.9867 11.3933 11.8 11.54C11.6133 11.6867 11.46 11.84 11.34 12L11.54 12.02Z" fill="white"/>
</svg>
