<svg width="42" height="42" viewBox="0 0 42 42" fill="none" xmlns="http://www.w3.org/2000/svg">
<path d="M2.78916 3.64221C1.8618 3.64221 1.11572 4.45412 1.11572 5.46331V9.10549C1.11572 10.1147 1.8618 10.9266 2.78916 10.9266H6.13604C7.0634 10.9266 7.80947 10.1147 7.80947 9.10549V5.46331C7.80947 4.45412 7.0634 3.64221 6.13604 3.64221H2.78916ZM13.3876 4.85627C12.1534 4.85627 11.1563 5.94134 11.1563 7.2844C11.1563 8.62746 12.1534 9.71252 13.3876 9.71252H33.4689C34.703 9.71252 35.7001 8.62746 35.7001 7.2844C35.7001 5.94134 34.703 4.85627 33.4689 4.85627H13.3876ZM13.3876 16.9969C12.1534 16.9969 11.1563 18.082 11.1563 19.425C11.1563 20.7681 12.1534 21.8531 13.3876 21.8531H33.4689C34.703 21.8531 35.7001 20.7681 35.7001 19.425C35.7001 18.082 34.703 16.9969 33.4689 16.9969H13.3876ZM13.3876 29.1375C12.1534 29.1375 11.1563 30.2226 11.1563 31.5656C11.1563 32.9087 12.1534 33.9938 13.3876 33.9938H33.4689C34.703 33.9938 35.7001 32.9087 35.7001 31.5656C35.7001 30.2226 34.703 29.1375 33.4689 29.1375H13.3876ZM1.11572 17.6039V21.2461C1.11572 22.2553 1.8618 23.0672 2.78916 23.0672H6.13604C7.0634 23.0672 7.80947 22.2553 7.80947 21.2461V17.6039C7.80947 16.5947 7.0634 15.7828 6.13604 15.7828H2.78916C1.8618 15.7828 1.11572 16.5947 1.11572 17.6039ZM2.78916 27.9235C1.8618 27.9235 1.11572 28.7354 1.11572 29.7446V33.3867C1.11572 34.3959 1.8618 35.2078 2.78916 35.2078H6.13604C7.0634 35.2078 7.80947 34.3959 7.80947 33.3867V29.7446C7.80947 28.7354 7.0634 27.9235 6.13604 27.9235H2.78916Z" fill="#BF6AF2"/>
</svg>
