<svg width="22" height="25" viewBox="0 0 22 25" fill="none" xmlns="http://www.w3.org/2000/svg">
<path d="M1 6.11111H21M8.5 11.2222V18.8889M13.5 11.2222V18.8889M2.25 6.11111L3.5 21.4444C3.5 22.1222 3.76339 22.7722 4.23223 23.2515C4.70107 23.7308 5.33696 24 6 24H16C16.663 24 17.2989 23.7308 17.7678 23.2515C18.2366 22.7722 18.5 22.1222 18.5 21.4444L19.75 6.11111M7.25 6.11111V2.27778C7.25 1.93889 7.3817 1.61388 7.61612 1.37425C7.85054 1.13462 8.16848 1 8.5 1H13.5C13.8315 1 14.1495 1.13462 14.3839 1.37425C14.6183 1.61388 14.75 1.93889 14.75 2.27778V6.11111" stroke="white" stroke-width="2" stroke-linecap="round" stroke-linejoin="round"/>
</svg>
