<svg width="25" height="24" viewBox="0 0 25 24" fill="none" xmlns="http://www.w3.org/2000/svg">
<path d="M16.1458 14H15.3229L15.0313 13.73C16.0875 12.5541 16.6679 11.0527 16.6667 9.5C16.6667 8.21442 16.2696 6.95772 15.5256 5.8888C14.7816 4.81988 13.7241 3.98676 12.4869 3.49479C11.2497 3.00282 9.88832 2.87409 8.57491 3.1249C7.2615 3.3757 6.05505 3.99477 5.10813 4.90381C4.16122 5.81285 3.51636 6.97104 3.2551 8.23192C2.99385 9.49279 3.12793 10.7997 3.6404 11.9874C4.15287 13.1752 5.02071 14.1903 6.13416 14.9046C7.24762 15.6188 8.55669 16 9.89584 16C11.5729 16 13.1146 15.41 14.3021 14.43L14.5833 14.71V15.5L19.7917 20.49L21.3438 19L16.1458 14ZM9.89584 14C7.30209 14 5.20834 11.99 5.20834 9.5C5.20834 7.01 7.30209 5 9.89584 5C12.4896 5 14.5833 7.01 14.5833 9.5C14.5833 11.99 12.4896 14 9.89584 14Z" fill="white"/>
</svg>
