<svg width="42" height="42" viewBox="0 0 42 42" fill="none" xmlns="http://www.w3.org/2000/svg">
<path d="M2.78916 3.64218C1.8618 3.64218 1.11572 4.45409 1.11572 5.46328V9.10546C1.11572 10.1147 1.8618 10.9266 2.78916 10.9266H6.13604C7.0634 10.9266 7.80947 10.1147 7.80947 9.10546V5.46328C7.80947 4.45409 7.0634 3.64218 6.13604 3.64218H2.78916ZM13.3876 4.85624C12.1534 4.85624 11.1563 5.94131 11.1563 7.28437C11.1563 8.62743 12.1534 9.71249 13.3876 9.71249H33.4689C34.703 9.71249 35.7001 8.62743 35.7001 7.28437C35.7001 5.94131 34.703 4.85624 33.4689 4.85624H13.3876ZM13.3876 16.9969C12.1534 16.9969 11.1563 18.0819 11.1563 19.425C11.1563 20.768 12.1534 21.8531 13.3876 21.8531H33.4689C34.703 21.8531 35.7001 20.768 35.7001 19.425C35.7001 18.0819 34.703 16.9969 33.4689 16.9969H13.3876ZM13.3876 29.1375C12.1534 29.1375 11.1563 30.2226 11.1563 31.5656C11.1563 32.9087 12.1534 33.9937 13.3876 33.9937H33.4689C34.703 33.9937 35.7001 32.9087 35.7001 31.5656C35.7001 30.2226 34.703 29.1375 33.4689 29.1375H13.3876ZM1.11572 17.6039V21.2461C1.11572 22.2553 1.8618 23.0672 2.78916 23.0672H6.13604C7.0634 23.0672 7.80947 22.2553 7.80947 21.2461V17.6039C7.80947 16.5947 7.0634 15.7828 6.13604 15.7828H2.78916C1.8618 15.7828 1.11572 16.5947 1.11572 17.6039ZM2.78916 27.9234C1.8618 27.9234 1.11572 28.7353 1.11572 29.7445V33.3867C1.11572 34.3959 1.8618 35.2078 2.78916 35.2078H6.13604C7.0634 35.2078 7.80947 34.3959 7.80947 33.3867V29.7445C7.80947 28.7353 7.0634 27.9234 6.13604 27.9234H2.78916Z" fill="white"/>
</svg>
