<svg width="37" height="37" viewBox="0 0 37 37" fill="none" xmlns="http://www.w3.org/2000/svg">
<path d="M8.56062 0.21875C6.98562 0.21875 5.66187 0.21875 4.61187 0.359375C3.49812 0.509375 2.48 0.84125 1.66063 1.66063C0.84125 2.48 0.509375 3.49813 0.359375 4.61188C0.21875 5.66188 0.21875 6.98563 0.21875 8.56063V8.75C0.21875 10.325 0.21875 11.6488 0.359375 12.6988C0.509375 13.8125 0.84125 14.8306 1.66063 15.65C2.48 16.4694 3.49812 16.8013 4.61187 16.9513C5.66187 17.0919 6.98562 17.0919 8.56062 17.0919H8.75C10.325 17.0919 11.6488 17.0919 12.6988 16.9513C13.8125 16.8013 14.8306 16.4694 15.65 15.65C16.4694 14.8306 16.8012 13.8125 16.9512 12.6988C17.0919 11.6488 17.0919 10.325 17.0919 8.75V8.5625C17.0919 6.9875 17.0919 5.66375 16.9512 4.61375C16.8012 3.5 16.4694 2.48188 15.65 1.6625C14.8306 0.843125 13.8125 0.51125 12.6988 0.36125C11.6488 0.220625 10.325 0.220625 8.75 0.220625L8.56062 0.21875ZM28.2481 0.21875C26.6731 0.21875 25.3494 0.21875 24.2994 0.359375C23.1856 0.509375 22.1675 0.84125 21.3481 1.66063C20.5288 2.48 20.1969 3.49813 20.0469 4.61188C19.9062 5.66188 19.9062 6.98563 19.9062 8.56063V8.75C19.9062 10.325 19.9062 11.6488 20.0469 12.6988C20.1969 13.8125 20.5288 14.8306 21.3481 15.65C22.1675 16.4694 23.1856 16.8013 24.2994 16.9513C25.3494 17.0919 26.6731 17.0919 28.2481 17.0919H28.4394C30.0144 17.0919 31.3381 17.0919 32.3881 16.9513C33.5019 16.8013 34.52 16.4694 35.3394 15.65C36.1588 14.8306 36.4906 13.8125 36.6406 12.6988C36.7812 11.6488 36.7812 10.325 36.7812 8.75V8.5625C36.7812 6.9875 36.7812 5.66375 36.6406 4.61375C36.4906 3.5 36.1588 2.48188 35.3394 1.6625C34.52 0.843125 33.5019 0.51125 32.3881 0.36125C31.3381 0.220625 30.0163 0.220625 28.4413 0.220625L28.2481 0.21875ZM8.56062 19.9194C6.98562 19.9194 5.66187 19.9194 4.61187 20.06C3.49812 20.21 2.48 20.5419 1.66063 21.3613C0.84125 22.1806 0.509375 23.1988 0.359375 24.3125C0.21875 25.3625 0.21875 26.6863 0.21875 28.2613V28.4525C0.21875 30.0275 0.21875 31.3513 0.359375 32.4013C0.509375 33.515 0.84125 34.5331 1.66063 35.3525C2.48 36.1719 3.49812 36.5038 4.61187 36.6538C5.66187 36.7944 6.98562 36.7944 8.56062 36.7944H8.75C10.325 36.7944 11.6488 36.7944 12.6988 36.6538C13.8125 36.5038 14.8306 36.1719 15.65 35.3525C16.4694 34.5331 16.8012 33.515 16.9512 32.4013C17.0919 31.3513 17.0919 30.0275 17.0919 28.4525V28.2613C17.0919 26.6863 17.0919 25.3644 16.9512 24.3125C16.8012 23.1988 16.4694 22.1806 15.65 21.3613C14.8306 20.5419 13.8125 20.21 12.6988 20.06C11.6488 19.9194 10.325 19.9194 8.75 19.9194H8.56062ZM28.2481 19.9194C26.6731 19.9194 25.3494 19.9194 24.2994 20.06C23.1856 20.21 22.1675 20.5419 21.3481 21.3613C20.5288 22.1806 20.1969 23.1988 20.0469 24.3125C19.9062 25.3625 19.9062 26.6863 19.9062 28.2613V28.4525C19.9062 30.0275 19.9062 31.3513 20.0469 32.4013C20.1969 33.515 20.5288 34.5331 21.3481 35.3525C22.1675 36.1719 23.1856 36.5038 24.2994 36.6538C25.3494 36.7944 26.6731 36.7944 28.2481 36.7944H28.4394C30.0144 36.7944 31.3381 36.7944 32.3881 36.6538C33.5019 36.5038 34.52 36.1719 35.3394 35.3525C36.1588 34.5331 36.4906 33.515 36.6406 32.4013C36.7812 31.3513 36.7812 30.0275 36.7812 28.4525V28.2613C36.7812 26.6863 36.7812 25.3644 36.6406 24.3125C36.4906 23.1988 36.1588 22.1806 35.3394 21.3613C34.52 20.5419 33.5019 20.21 32.3881 20.06C31.3381 19.9194 30.0144 19.9194 28.4413 19.9194H28.2481Z" fill="white"/>
</svg>
